<svg width="24" height="24" viewBox="0 0 24 24" fill="none" xmlns="http://www.w3.org/2000/svg">
<rect width="24" height="24" fill="black"/>
<path d="M7.44212 16C9.99582 16 11.7414 14.3785 11.7414 12C11.7414 9.62153 9.99582 8 7.44212 8C4.88842 8 3.14285 9.62153 3.14285 12C3.14285 14.3785 4.88842 16 7.44212 16ZM7.44212 15.478C5.105 15.478 3.72471 14.186 3.72471 12C3.72471 9.81403 5.105 8.52202 7.44212 8.52202C9.77924 8.52202 11.1595 9.81403 11.1595 12C11.1595 14.186 9.77924 15.478 7.44212 15.478ZM5.6513 14.3491H8.0563C8.99374 14.3491 9.61115 13.7879 9.62085 13.0049C9.62732 12.4111 9.35578 12.0392 8.67049 11.9021C9.21355 11.7651 9.48508 11.4127 9.48508 10.8385C9.48508 10.186 8.99374 9.6509 7.90114 9.6509H5.6513V14.3491ZM6.29781 11.6476V10.2186H7.86235C8.0757 10.2186 8.79979 10.199 8.79979 10.8907C8.79979 11.367 8.44421 11.6476 7.89468 11.6476H6.29781ZM6.29781 13.7749V12.2284H7.93347C8.51532 12.2284 8.92909 12.5024 8.92909 13.0049C8.92909 13.4682 8.52825 13.7749 7.95933 13.7749H6.29781Z" fill="#EFEFEF"/>
<path d="M16.5579 16C19.1116 16 20.8571 14.3785 20.8571 12C20.8571 9.62153 19.1116 8 16.5579 8C14.0042 8 12.2586 9.62153 12.2586 12C12.2586 14.3785 14.0042 16 16.5579 16ZM16.5579 15.478C14.2207 15.478 12.8405 14.186 12.8405 12C12.8405 9.81403 14.2207 8.52202 16.5579 8.52202C18.895 8.52202 20.2753 9.81403 20.2753 12C20.2753 14.186 18.895 15.478 16.5579 15.478ZM14.767 14.3491H17.172C18.1095 14.3491 18.7269 13.7879 18.7366 13.0049C18.7431 12.4111 18.4715 12.0392 17.7862 11.9021C18.3293 11.7651 18.6008 11.4127 18.6008 10.8385C18.6008 10.186 18.1095 9.6509 17.0169 9.6509H14.767V14.3491ZM15.4136 11.6476V10.2186H16.9781C17.1914 10.2186 17.9155 10.199 17.9155 10.8907C17.9155 11.367 17.56 11.6476 17.0104 11.6476H15.4136ZM15.4136 13.7749V12.2284H17.0492C17.6311 12.2284 18.0448 12.5024 18.0448 13.0049C18.0448 13.4682 17.644 13.7749 17.0751 13.7749H15.4136Z" fill="#EFEFEF"/>
</svg>
