<svg width="130" height="130" viewBox="0 0 130 130" fill="none" xmlns="http://www.w3.org/2000/svg">
<rect width="130" height="130" fill="#4274E5"/>
<path fill-rule="evenodd" clip-rule="evenodd" d="M68.3526 39.336V95.706H60.8064V39.336H68.3526Z" fill="white"/>
<path fill-rule="evenodd" clip-rule="evenodd" d="M20.1587 65C20.1587 47.3501 34.4674 33.0421 52.1181 33.0421H77.0406C94.6913 33.0421 109 47.3501 109 65C109 82.6498 94.6913 96.9579 77.0406 96.9579H52.1181C34.4674 96.9579 20.1587 82.6498 20.1587 65ZM52.1181 40.5879C38.635 40.5879 27.7049 51.5176 27.7049 65C27.7049 78.4824 38.635 89.412 52.1181 89.412H77.0406C90.5236 89.412 101.454 78.4824 101.454 65C101.454 51.5176 90.5236 40.5879 77.0406 40.5879H52.1181Z" fill="white"/>
<path fill-rule="evenodd" clip-rule="evenodd" d="M51.7582 46.7572C49.5212 51.2308 48.0284 57.6752 48.0284 64.9999C48.0284 72.3246 49.5212 78.769 51.7582 83.2426C54.1082 87.942 56.6563 89.412 58.3485 89.412V96.9578C52.2583 96.9578 47.7598 92.1188 45.0088 86.6174C42.1449 80.8903 40.4823 73.2422 40.4823 64.9999C40.4823 56.7576 42.1449 49.1095 45.0088 43.3824C47.7598 37.881 52.2583 33.042 58.3485 33.042V40.5878C56.6563 40.5878 54.1082 42.0578 51.7582 46.7572Z" fill="white"/>
<path fill-rule="evenodd" clip-rule="evenodd" d="M84.1498 43.3824C87.0137 49.1095 88.6764 56.7576 88.6764 64.9999C88.6764 73.2422 87.0137 80.8903 84.1498 86.6174C81.3988 92.1188 76.9004 96.9578 70.8101 96.9578V89.412C72.5023 89.412 75.0504 87.942 77.4004 83.2426C79.6375 78.769 81.1302 72.3246 81.1302 64.9999C81.1302 57.6752 79.6375 51.2308 77.4004 46.7572C75.0504 42.0578 72.5023 40.5878 70.8101 40.5878V33.042C76.9004 33.042 81.3988 37.881 84.1498 43.3824Z" fill="white"/>
</svg>
