<svg width="12" height="17" viewBox="0 0 12 17" fill="none" xmlns="http://www.w3.org/2000/svg">
<path fill-rule="evenodd" clip-rule="evenodd" d="M4.4394 3.59903C4.07022 3.74282 3.68291 3.87197 3.28661 3.98347C2.84316 4.10805 2.2715 4.2183 1.78405 3.9619C1.59087 3.86016 1.46077 3.68329 1.42687 3.4765C1.39312 3.27161 1.45951 3.06419 1.60901 2.90717C1.83641 2.66872 2.14534 2.54257 2.50238 2.54257C3.00402 2.54257 3.55817 2.78511 4.06297 3.22578C4.19354 3.3398 4.31986 3.46517 4.4394 3.59903V3.59903ZM5.81793 12.9342C5.46169 14.1374 4.9703 14.9336 4.31506 15.3684C4.00281 15.5757 3.68284 15.7103 3.3646 15.7684C2.51239 15.924 1.67059 15.4372 1.36087 14.6115C1.07086 13.8388 1.15854 12.866 1.62723 11.6398C2.29161 10.0924 3.67811 8.61952 5.53139 7.49235C5.6801 7.40194 5.83197 7.31359 5.98399 7.22917C6.03839 7.54133 6.08239 7.86686 6.11504 8.19807C6.30475 10.1215 6.0939 12.0015 5.81793 12.9342V12.9342ZM11.5882 5.63871L11.5526 4.44681L11.4829 4.44886C9.94942 4.49469 8.32985 4.86133 6.79386 5.50973C6.63221 4.99929 6.43682 4.52461 6.21226 4.09639C7.74762 3.27538 9.02593 2.14442 10.0127 0.734389L10.0529 0.676746L9.06977 0L9.03019 0.0566974C8.13572 1.33144 6.97016 2.35089 5.56553 3.08765C5.34586 2.80699 5.10489 2.55154 4.84863 2.3279C3.47728 1.13064 1.7511 1.02843 0.743874 2.0852C0.334171 2.51516 0.153605 3.09269 0.248382 3.66958C0.343475 4.24837 0.700349 4.73943 1.22722 5.01662C2.19834 5.52784 3.2237 5.23963 3.60975 5.13127C4.13709 4.98323 4.6493 4.80652 5.13328 4.60603C5.35753 5.02481 5.54976 5.50138 5.70478 6.02426C3.26659 7.30278 1.38035 9.17978 0.52483 11.1818L0.516787 11.2015C-0.0648087 12.7183 -0.15454 13.9707 0.242705 15.03C0.682529 16.2024 1.80913 16.99 3.04613 16.99C3.22401 16.99 3.40348 16.9736 3.57947 16.9415C4.05809 16.8539 4.52803 16.6588 4.97605 16.3616C5.87415 15.7657 6.52403 14.7552 6.96291 13.2722C7.28115 12.1977 7.50981 10.1758 7.30338 8.08111C7.2556 7.59761 7.18542 7.12623 7.09459 6.67895C8.54495 6.04268 10.0734 5.68391 11.5185 5.64092L11.5882 5.63871Z" fill="#1D1D1B"/>
</svg>
