<svg width="24" height="24" viewBox="0 0 24 24" fill="none" xmlns="http://www.w3.org/2000/svg">
<rect width="24" height="24" fill="#FFDF4E"/>
<path fill-rule="evenodd" clip-rule="evenodd" d="M10.4394 7.59903C10.0702 7.74282 9.68291 7.87197 9.28661 7.98347C8.84316 8.10805 8.2715 8.2183 7.78405 7.9619C7.59087 7.86016 7.46077 7.68329 7.42687 7.4765C7.39312 7.27161 7.45951 7.06419 7.60901 6.90717C7.83641 6.66872 8.14534 6.54257 8.50238 6.54257C9.00402 6.54257 9.55817 6.78511 10.063 7.22578C10.1935 7.3398 10.3199 7.46517 10.4394 7.59903V7.59903ZM11.8179 16.9342C11.4617 18.1374 10.9703 18.9336 10.3151 19.3684C10.0028 19.5757 9.68284 19.7103 9.3646 19.7684C8.51239 19.924 7.67059 19.4372 7.36087 18.6115C7.07086 17.8388 7.15854 16.866 7.62723 15.6398C8.29161 14.0924 9.67811 12.6195 11.5314 11.4923C11.6801 11.4019 11.832 11.3136 11.984 11.2292C12.0384 11.5413 12.0824 11.8669 12.115 12.1981C12.3047 14.1215 12.0939 16.0015 11.8179 16.9342V16.9342ZM17.5882 9.63871L17.5526 8.44681L17.4829 8.44886C15.9494 8.49469 14.3298 8.86133 12.7939 9.50973C12.6322 8.99929 12.4368 8.52461 12.2123 8.09639C13.7476 7.27538 15.0259 6.14442 16.0127 4.73439L16.0529 4.67675L15.0698 4L15.0302 4.0567C14.1357 5.33144 12.9702 6.35089 11.5655 7.08765C11.3459 6.80699 11.1049 6.55154 10.8486 6.3279C9.47728 5.13064 7.7511 5.02843 6.74387 6.0852C6.33417 6.51516 6.15361 7.09269 6.24838 7.66958C6.34348 8.24837 6.70035 8.73943 7.22722 9.01662C8.19834 9.52784 9.2237 9.23963 9.60975 9.13127C10.1371 8.98323 10.6493 8.80652 11.1333 8.60603C11.3575 9.02481 11.5498 9.50138 11.7048 10.0243C9.26659 11.3028 7.38035 13.1798 6.52483 15.1818L6.51679 15.2015C5.93519 16.7183 5.84546 17.9707 6.24271 19.03C6.68253 20.2024 7.80913 20.99 9.04613 20.99C9.22401 20.99 9.40348 20.9736 9.57947 20.9415C10.0581 20.8539 10.528 20.6588 10.9761 20.3616C11.8742 19.7657 12.524 18.7552 12.9629 17.2722C13.2811 16.1977 13.5098 14.1758 13.3034 12.0811C13.2556 11.5976 13.1854 11.1262 13.0946 10.679C14.545 10.0427 16.0734 9.68391 17.5185 9.64092L17.5882 9.63871Z" fill="#1D1D1B"/>
</svg>
