<svg width="16" height="16" viewBox="0 0 16 16" fill="none" xmlns="http://www.w3.org/2000/svg">
<path d="M8 -3.8743e-07C6.27324 -3.8743e-07 4.67427 0.54711 3.36691 1.4774C3.29169 0.702243 2.59849 0.534444 2.29207 0.534444C1.3978 0.534444 0.537156 1.39691 0.537156 2.29271C0.537156 3.07584 1.11531 3.31791 1.47764 3.3666C0.5472 4.674 0 6.27309 0 8C0 12.4183 3.58171 16 8 16C12.4183 16 16 12.4183 16 8C16 3.58171 12.4183 -3.8743e-07 8 -3.8743e-07ZM7.36233 0.917666C7.10898 1.58275 6.95189 2.90109 6.89109 5.34073C6.27833 4.41151 6.02251 4.21442 5.86667 4.3044C5.70027 4.40051 5.7602 4.7588 6.35929 5.92133C4.58551 4.52171 4.04649 4.30322 3.85996 4.52558C3.69607 4.72091 3.91402 5.12484 5.11287 6.24002C2.6514 5.43896 1.97369 5.42858 1.85231 5.76209C1.75524 6.02887 2.07213 6.35589 3.43109 6.9718C2.16711 7.05478 1.38273 7.18489 0.917689 7.36207C1.22169 3.94376 3.94402 1.22151 7.36233 0.917666ZM8.63784 0.917689C12.0561 1.22162 14.7784 3.94387 15.0823 7.36211C14.4173 7.10873 13.099 6.95162 10.6592 6.89084C11.588 6.27827 11.785 6.02251 11.695 5.86667C11.599 5.70027 11.2407 5.7602 10.0783 6.35931C11.4778 4.58551 11.6962 4.04651 11.4739 3.85996C11.2786 3.69607 10.8747 3.91404 9.75969 5.11291C10.5606 2.65156 10.571 1.97371 10.2376 1.85231C9.97084 1.75524 9.64389 2.07213 9.02804 3.43111C8.94507 2.16711 8.81498 1.38273 8.63784 0.917689ZM1.62524 2.67176C1.36876 2.66758 1.2456 2.51898 1.24187 2.29044C1.23344 1.77447 1.77656 1.23109 2.28591 1.23936H2.28598C2.54189 1.24353 2.66551 1.39171 2.66924 1.62067C2.67762 2.13267 2.14287 2.67191 1.63682 2.67184C1.63298 2.67184 1.62907 2.67182 1.62524 2.67176ZM7.74171 13.9718C7.58427 8.90482 7.56333 8.89518 6.42127 8.32058C6.30969 8.26447 6.23144 8.15402 6.2232 8.0294C6.21287 7.87284 6.28453 7.7482 6.42067 7.67971C7.56333 7.10482 7.58424 7.09609 7.74171 2.0282C7.74607 1.88871 7.86042 1.77778 8 1.77778C8.13958 1.77778 8.25393 1.88871 8.25829 2.02822C8.41573 7.09518 8.43667 7.10482 9.57873 7.67942C9.69031 7.73553 9.76856 7.84598 9.7768 7.97058C9.78713 8.12716 9.71547 8.2518 9.57933 8.32029C8.43667 8.89518 8.41576 8.90391 8.25829 13.9718C8.25393 14.1113 8.13958 14.2222 8 14.2222C7.86042 14.2222 7.74607 14.1113 7.74171 13.9718ZM0.917689 8.63789C1.58273 8.89127 2.90098 9.04838 5.34078 9.10916C4.412 9.72173 4.21498 9.97751 4.30496 10.1333C4.40104 10.2997 4.75931 10.2398 5.92167 9.64071C4.52222 11.4145 4.30378 11.9535 4.52609 12.14C4.72142 12.3039 5.12529 12.086 6.24031 10.8871C5.43942 13.3484 5.42896 14.0263 5.76242 14.1477C6.02916 14.2448 6.35611 13.9279 6.97196 12.5689C7.05493 13.8329 7.18502 14.6173 7.36216 15.0823C3.94389 14.7784 1.22164 12.0561 0.917689 8.63789ZM14.1477 10.2379C14.2448 9.97113 13.9279 9.64411 12.5689 9.0282C13.8329 8.94522 14.6173 8.81511 15.0823 8.63793C14.7783 12.0562 12.056 14.7785 8.63767 15.0823C8.89102 14.4172 9.04811 13.0989 9.10891 10.6593C9.72167 11.5885 9.97749 11.7856 10.1333 11.6956C10.2997 11.5995 10.2398 11.2412 9.64069 10.0787C11.4145 11.4783 11.9535 11.6968 12.14 11.4744C12.3039 11.2791 12.086 10.8752 10.8871 9.75998C12.395 10.2507 13.2335 10.4447 13.6847 10.4447C13.9701 10.4447 14.1007 10.3671 14.1477 10.2379ZM7.46667 8C7.46667 8.29453 7.70547 8.53333 8 8.53333C8.29456 8.53333 8.53333 8.29453 8.53333 8C8.53333 7.70547 8.29456 7.46667 8 7.46667C7.70547 7.46667 7.46667 7.70547 7.46667 8Z" fill="#9593A5"/>
</svg>
