<svg width="130" height="130" viewBox="0 0 130 130" fill="none" xmlns="http://www.w3.org/2000/svg">
<rect width="130" height="130" fill="#5A31F4"/>
<path d="M56.4707 27.4167C47.6292 27.4167 39.3481 30.1218 33.4019 34.024C32.9972 34.2882 32.8571 34.8324 33.1061 35.2521L40.2821 47.4871C40.5467 47.9224 41.1071 48.0779 41.5429 47.8136C46.0571 45.093 51.225 43.6782 56.5019 43.7093C70.7136 43.7093 81.1584 53.7212 81.1584 66.9512C81.1584 78.2223 72.7995 86.5707 62.199 86.5707C53.5599 86.5707 47.567 81.5492 47.567 74.46C47.567 70.4024 49.2948 67.0755 53.7934 64.728C54.2604 64.4793 54.4316 63.9041 54.1514 63.4532L47.3802 52.0111C47.1622 51.638 46.6953 51.467 46.275 51.6224C37.2 54.9805 30.8335 63.0646 30.8335 73.9159C30.8335 90.3329 43.9245 102.583 62.1835 102.583C83.5089 102.583 98.8414 87.8299 98.8414 66.6713C98.8414 43.9892 81.0028 27.4167 56.4707 27.4167Z" fill="white"/>
</svg>
