<svg width="24" height="24" viewBox="0 0 24 24" fill="none" xmlns="http://www.w3.org/2000/svg">
<rect x="-0.000183105" y="6.10352e-05" width="24" height="24" fill="black"/>
<path d="M13.2113 19.0292L17.8371 17.1176L16.7648 12.6038L12.0759 14.362L13.2113 19.0292Z" fill="white"/>
<path d="M7.26586 15.9414L11.7855 14.2081L11.3508 12.3308L10.6655 9.40631L6.16266 11.1437L7.26586 15.9414Z" fill="white"/>
<path d="M7.32294 16.1839L8.47183 20.9231L12.98 19.1232L11.8432 14.45L7.32294 16.1839Z" fill="white"/>
<path d="M10.384 9.25024L8.31531 8.58167L4.14774 10.0197L6.02425 10.9324L10.384 9.25024Z" fill="white"/>
<path d="M5.07355 15.1563L6.10822 19.5949L8.19705 20.8352L7.071 16.1915L5.07355 15.1563Z" fill="white"/>
<path d="M16.539 12.4249L14.3742 11.3776L11.6155 12.3818L12.018 14.1199L16.539 12.4249Z" fill="white"/>
<path d="M6.9978 15.8758L5.91139 11.1527L3.99994 10.2225L5.00102 14.8413L6.9978 15.8758Z" fill="white"/>
<path d="M18.4908 4.77197L16.2508 3.83906L12.7027 3.66553L14.727 4.6852L18.4908 4.77197Z" fill="white"/>
<path d="M12.2222 3.69983L11.4724 8.43567L13.8105 9.61341L14.5603 4.87757L12.2222 3.69983Z" fill="white"/>
<path d="M14.8009 4.93414L14.0497 9.67671L18.2536 9.6794L19 5.031L14.8009 4.93414Z" fill="white"/>
</svg>
