<?xml version="1.0" encoding="UTF-8" standalone="no"?>
<svg width="16px" height="16px" viewBox="0 0 16 16" version="1.1" xmlns="http://www.w3.org/2000/svg" xmlns:xlink="http://www.w3.org/1999/xlink" xmlns:sketch="http://www.bohemiancoding.com/sketch/ns">
    <!-- Generator: Sketch 3.2.2 (9983) - http://www.bohemiancoding.com/sketch -->
    <title>email</title>
    <desc>Created with Sketch.</desc>
    <defs></defs>
    <g id="Page-1" stroke="none" stroke-width="1" fill="none" fill-rule="evenodd" sketch:type="MSPage">
        <path d="M12.1707173,3.25290767 C12.6687173,2.99590768 12.7227173,3.07190768 12.2927173,3.42290766 L3.55771778,10.5809073 C3.1767178,10.8559073 2.94471781,11.3899072 2.94471781,11.8379072 L2.94471781,15.477907 C2.94471781,16.017907 3.2277178,16.161907 3.64971778,15.801907 L7.20171759,12.7249072 L9.77071746,15.1379071 C9.97271745,15.325907 10.2087174,15.272907 10.3077174,15.0199071 L15.9707171,0.316907822 C16.0697171,0.0639078355 15.9317171,-0.0640921579 15.6677172,0.0319078371 L0.238717954,5.60290755 C-0.0272820326,5.69790754 -0.0792820299,5.92890753 0.12471796,6.11790752 L2.05971786,7.93490743 C2.26071785,8.12390742 2.62671783,8.17390741 2.87471782,8.04490742 L12.1707173,3.25290767" id="email" fill="#33383A" sketch:type="MSShapeGroup"></path>
    </g>
</svg>