<?xml version="1.0" encoding="UTF-8" standalone="no"?>
<svg width="16px" height="16px" viewBox="0 0 16 16" version="1.1" xmlns="http://www.w3.org/2000/svg" xmlns:xlink="http://www.w3.org/1999/xlink" xmlns:sketch="http://www.bohemiancoding.com/sketch/ns">
    <!-- Generator: Sketch 3.2.2 (9983) - http://www.bohemiancoding.com/sketch -->
    <title>ig</title>
    <desc>Created with Sketch.</desc>
    <defs></defs>
    <g id="Page-1" stroke="none" stroke-width="1" fill="none" fill-rule="evenodd" sketch:type="MSPage">
        <path d="M11,2.49538898 C11,2.2217932 11.2157526,2 11.495389,2 L13.504611,2 C13.7782068,2 14,2.2157526 14,2.49538898 L14,4.50461102 C14,4.7782068 13.7842474,5 13.504611,5 L11.495389,5 C11.2217932,5 11,4.7842474 11,4.50461102 L11,2.49538898 Z M14,14 L2,14 L2,8 L4,8 C4,10.206 5.795,12 8,12 C10.205,12 12,10.206 12,8 L14,8 L14,14 L14,14 Z M8,5 C9.656,5 11,6.3455 11,8 C11,9.6545 9.656,11 8,11 C6.344,11 5,9.6545 5,8 C5,6.3455 6.344,5 8,5 L8,5 Z M2,0 L1,0 C0.447,0 0,0.447 0,1 L0,15 C0,15.553 0.447,16 1,16 L15,16 C15.553,16 16,15.553 16,15 L16,1 C16,0.447 15.553,0 15,0 L2,0 L2,0 Z" id="ig" fill="#323839" sketch:type="MSShapeGroup"></path>
    </g>
</svg>