<?xml version="1.0" encoding="UTF-8" standalone="no"?>
<svg width="21px" height="16px" viewBox="0 0 21 16" version="1.1" xmlns="http://www.w3.org/2000/svg" xmlns:xlink="http://www.w3.org/1999/xlink" xmlns:sketch="http://www.bohemiancoding.com/sketch/ns">
    <!-- Generator: Sketch 3.2.2 (9983) - http://www.bohemiancoding.com/sketch -->
    <title>m</title>
    <desc>Created with Sketch.</desc>
    <defs></defs>
    <g id="Page-1" stroke="none" stroke-width="1" fill="none" fill-rule="evenodd" sketch:type="MSPage">
        <path d="M21.0028819,2.35789474 L20.1723319,2.35789474 C19.8639819,2.35789474 19.4278819,2.78602105 19.4278819,3.06004211 L19.4278819,12.9936842 C19.4278819,13.2680421 19.8639819,13.6421053 20.1723319,13.6421053 L21.0028819,13.6421053 L21.0028819,16 L13.4778819,16 L13.4778819,13.6421053 L15.0528819,13.6421053 L15.0528819,3.2 L14.9757069,3.2 L11.2977319,16 L8.45030694,16 L4.81975694,3.2 L4.72788194,3.2 L4.72788194,13.6421053 L6.30288194,13.6421053 L6.30288194,16 L0.00288193933,16 L0.00288193933,13.6421053 L0.809631939,13.6421053 C1.14178194,13.6421053 1.57788194,13.2680421 1.57788194,12.9936842 L1.57788194,3.06004211 C1.57788194,2.78602105 1.14178194,2.35789474 0.809631939,2.35789474 L0.00288193933,2.35789474 L0.00288193933,0 L7.88068194,0 L10.4671819,9.26315789 L10.5384069,9.26315789 L13.1487069,0 L21.0028819,0 L21.0028819,2.35789474" id="m" fill="#323839" sketch:type="MSShapeGroup"></path>
    </g>
</svg>