<?xml version="1.0" encoding="UTF-8" standalone="no"?>
<svg width="922px" height="529px" viewBox="0 0 922 529" version="1.1" xmlns="http://www.w3.org/2000/svg" xmlns:xlink="http://www.w3.org/1999/xlink">
    <!-- Generator: Sketch 40.1 (33804) - http://www.bohemiancoding.com/sketch -->
    <title>Group 15</title>
    <desc>Created with Sketch.</desc>
    <defs></defs>
    <g id="Page-1" stroke="none" stroke-width="1" fill="none" fill-rule="evenodd">
        <g id="Artboard" transform="translate(-12.000000, -6.000000)">
            <g id="Group-15" transform="translate(7.000000, 10.000000)">
                <path d="M476,422 C462.745166,422 452,432.745166 452,446" id="Oval-3" stroke="#FFFFFF" stroke-width="8"></path>
                <path d="M860,156 C846.745166,156 836,166.745166 836,180" id="Oval-3-Copy-8" stroke="#FFFFFF" stroke-width="8" transform="translate(848.000000, 168.000000) rotate(-90.000000) translate(-848.000000, -168.000000) "></path>
                <path d="M729,402 C715.745166,402 705,412.745166 705,426" id="Oval-3-Copy-6" stroke="#FFFFFF" stroke-width="8" transform="translate(717.000000, 414.000000) rotate(97.000000) translate(-717.000000, -414.000000) "></path>
                <path d="M29,472 C15.745166,472 5,482.745166 5,496" id="Oval-3-Copy-7" stroke="#FFFFFF" stroke-width="8" transform="translate(17.000000, 484.000000) rotate(307.000000) translate(-17.000000, -484.000000) "></path>
                <path d="M493,192 C479.745166,192 469,202.745166 469,216" id="Oval-3-Copy" stroke="#FFFFFF" stroke-width="8" transform="translate(481.000000, 204.000000) rotate(-52.000000) translate(-481.000000, -204.000000) "></path>
                <path d="M375,310 C361.745166,310 351,320.745166 351,334" id="Oval-3-Copy-2" stroke="#FFFFFF" stroke-width="8" transform="translate(363.000000, 322.000000) rotate(67.000000) translate(-363.000000, -322.000000) "></path>
                <path d="M135,350 C121.745166,350 111,360.745166 111,374" id="Oval-3-Copy-3" stroke="#FFFFFF" stroke-width="8" transform="translate(123.000000, 362.000000) rotate(34.000000) translate(-123.000000, -362.000000) "></path>
                <path d="M345,80 C331.745166,80 321,90.745166 321,104" id="Oval-3-Copy-4" stroke="#FFFFFF" stroke-width="8" transform="translate(333.000000, 92.000000) rotate(-36.000000) translate(-333.000000, -92.000000) "></path>
                <path d="M575,120 C561.745166,120 551,130.745166 551,144" id="Oval-3-Copy-5" stroke="#FFFFFF" stroke-width="8" transform="translate(563.000000, 132.000000) rotate(13.000000) translate(-563.000000, -132.000000) "></path>
                <path d="M684,1 C670.745166,1 660,11.745166 660,25" id="Oval-3-Copy-9" stroke="#FFFFFF" stroke-width="8" transform="translate(672.000000, 13.000000) rotate(92.000000) translate(-672.000000, -13.000000) "></path>
                <circle id="Oval-2-Copy-14" fill="#FFFFFF" cx="642" cy="474" r="12"></circle>
                <circle id="Oval-2" fill="#FFFFFF" cx="29" cy="248" r="12"></circle>
                <circle id="Oval-2-Copy-3" fill="#FFFFFF" cx="857" cy="513" r="12"></circle>
                <circle id="Oval-2-Copy-4" fill="#FFFFFF" cx="537" cy="346" r="12"></circle>
                <circle id="Oval-2-Copy-6" fill="#FFFFFF" cx="460" cy="64" r="12"></circle>
                <circle id="Oval-2-Copy-7" fill="#FFFFFF" cx="827" cy="366" r="12"></circle>
                <circle id="Oval-2-Copy-8" fill="#FFFFFF" cx="717" cy="236" r="12"></circle>
                <circle id="Oval-2-Copy-9" fill="#FFFFFF" cx="217" cy="236" r="12"></circle>
                <circle id="Oval-2-Copy-10" fill="#FFFFFF" cx="287" cy="446" r="12"></circle>
                <circle id="Oval-2-Copy-11" fill="#FFFFFF" cx="915" cy="66" r="12"></circle>
                <circle id="Oval-2-Copy-12" fill="#FFFFFF" cx="77" cy="82" r="12"></circle>
            </g>
        </g>
    </g>
</svg>