<?xml version="1.0" encoding="UTF-8" standalone="no"?>
<svg width="20px" height="16px" viewBox="0 0 20 16" version="1.1" xmlns="http://www.w3.org/2000/svg" xmlns:xlink="http://www.w3.org/1999/xlink" xmlns:sketch="http://www.bohemiancoding.com/sketch/ns">
    <!-- Generator: Sketch 3.2.2 (9983) - http://www.bohemiancoding.com/sketch -->
    <title>twitter</title>
    <desc>Created with Sketch.</desc>
    <defs></defs>
    <g id="Page-1" stroke="none" stroke-width="1" fill="none" fill-rule="evenodd" sketch:type="MSPage">
        <path d="M20.0025,1.89357121 C19.2660198,2.21593356 18.4757729,2.43248231 17.6455134,2.53091357 C18.4932784,2.03014457 19.1434816,1.24023377 19.4510777,0.295293756 C18.6570796,0.75915103 17.7780549,1.09627807 16.844013,1.2759151 C16.0950289,0.490925869 15.0271952,0 13.8480767,0 C11.5811183,0 9.74304392,1.80990464 9.74304392,4.0393725 C9.74304392,4.35681329 9.77930525,4.66441095 9.84932713,4.95970471 C6.43826118,4.79237158 3.41231557,3.184251 1.38793295,0.740695171 C1.03657315,1.33620424 0.834009847,2.03014457 0.834009847,2.77083974 C0.834009847,4.17225469 1.78180603,5.4075669 2.88340028,6.13226699 C2.21069006,6.11135035 1.24663879,5.92802215 1.24663879,5.62534605 L1.24663879,5.67825285 C1.24663879,7.63457398 2.43826118,9.26607198 4.31509769,9.63888034 C3.97124023,9.72992925 3.49734214,9.78037527 3.1234753,9.78037527 C2.85839247,9.78037527 2.54579478,9.75453707 2.29446624,9.70655183 C2.81712957,11.3109812 4.30509456,12.4798524 6.10065567,12.5130729 C4.69646686,13.5945863 2.91090888,14.2405414 0.989058299,14.2405414 C0.657704751,14.2405414 0.323850422,14.2220855 0.0025,14.1851738 C1.81931776,15.3294371 3.97374101,16 6.29071507,16 C13.8418248,16 17.9681143,9.84558597 17.9681143,4.50815134 C17.9681143,4.33343587 17.9631127,4.15749 17.95436,3.98400492 C18.7571108,3.41433405 19.4535785,2.70316826 20.0025,1.89357121" id="twitter" fill="#323839" sketch:type="MSShapeGroup"></path>
    </g>
</svg>