<?xml version="1.0" encoding="UTF-8" standalone="no"?>
<svg width="16px" height="16px" viewBox="0 0 16 16" version="1.1" xmlns="http://www.w3.org/2000/svg" xmlns:xlink="http://www.w3.org/1999/xlink" xmlns:sketch="http://www.bohemiancoding.com/sketch/ns">
    <!-- Generator: Sketch 3.3.1 (12002) - http://www.bohemiancoding.com/sketch -->
    <title>link</title>
    <desc>Created with Sketch.</desc>
    <defs></defs>
    <g id="Page-1" stroke="none" stroke-width="1" fill="none" fill-rule="evenodd" sketch:type="MSPage">
        <g id="Artboard-2-Copy" sketch:type="MSArtboardGroup" transform="translate(-350.000000, -1135.000000)" fill-opacity="0.5" fill="#FFFFFF">
            <g id="1" sketch:type="MSLayerGroup" transform="translate(320.000000, 779.000000)">
                <g id="external" transform="translate(30.000000, 355.000000)" sketch:type="MSShapeGroup">
                    <path d="M10.148,14.601 C10.939,13.692 11.874,12.248 11.25,11 C10.25,9 6.75,10.5 6.75,8.5 C6.75,6.5 10,9 10,5 C10,3.562 8.85,3.102 7.654,3.011 C7.768,3.004 7.884,3 8,3 C11.308,3 14,5.691 14,9 C14,11.551 12.398,13.734 10.148,14.601 L10.148,14.601 Z M2,9 C2,7.351 2.669,5.854 3.75,4.769 C3.752,6.754 4.003,7.504 5,8.5 C6,9.5 7.5,11.25 7.5,13.25 C7.5,14.129 7.741,14.75 8.012,15 L8,15 C4.691,15 2,12.309 2,9 L2,9 Z M8,1 C3.582,1 0,4.582 0,9 C0,13.418 3.582,17 8,17 C12.418,17 16,13.418 16,9 C16,4.582 12.418,1 8,1 L8,1 Z" id="link"></path>
                </g>
            </g>
        </g>
    </g>
</svg>