<?xml version="1.0" encoding="UTF-8" standalone="no"?>
<svg width="16px" height="16px" viewBox="0 0 16 16" version="1.1" xmlns="http://www.w3.org/2000/svg" xmlns:xlink="http://www.w3.org/1999/xlink" xmlns:sketch="http://www.bohemiancoding.com/sketch/ns">
    <!-- Generator: Sketch 3.3.2 (12043) - http://www.bohemiancoding.com/sketch -->
    <title>Artboard 6</title>
    <desc>Created with Sketch.</desc>
    <defs></defs>
    <g id="Page-1" stroke="none" stroke-width="1" fill="none" fill-rule="evenodd" sketch:type="MSPage">
        <g id="Artboard-6" sketch:type="MSArtboardGroup" fill-opacity="0.5" fill="#FFFFFF">
            <path d="M8,9 C6.344,9 5,7.656 5,6 C5,4.344 6.344,3 8,3 C9.656,3 11,4.344 11,6 C11,7.656 9.656,9 8,9 L8,9 Z M8,0 C4.646,0 1.928,2.719 1.928,6.072 C1.928,10.363 6.291,14.652 7.62,15.86 C7.827,16.047 8.173,16.047 8.38,15.86 C9.709,14.652 14.072,10.363 14.072,6.072 C14.072,2.719 11.353,0 8,0 L8,0 Z" id="location" sketch:type="MSShapeGroup"></path>
        </g>
    </g>
</svg>